<svg id="copy" xmlns="http://www.w3.org/2000/svg" xmlns:xlink="http://www.w3.org/1999/xlink" width="512" height="512" viewBox="0 0 512 512">
  <defs>
    <linearGradient id="linear-gradient" x1="0.146" y1="0.854" x2="0.854" y2="0.146" gradientUnits="objectBoundingBox">
      <stop offset="0" stop-color="#42c873" stop-opacity="0.361"/>
      <stop offset="1" stop-color="#16e461" stop-opacity="0.702"/>
    </linearGradient>
    <radialGradient id="radial-gradient" cx="0.484" cy="0.541" r="0.5" gradientUnits="objectBoundingBox">
      <stop offset="0" stop-color="#42c873"/>
      <stop offset="0.515" stop-color="#42c873" stop-opacity="0.541"/>
      <stop offset="0.558" stop-color="#42c873" stop-opacity="0.231"/>
      <stop offset="0.954" stop-color="#ffae31" stop-opacity="0"/>
      <stop offset="1" stop-color="#ffae31" stop-opacity="0"/>
    </radialGradient>
    <linearGradient id="linear-gradient-2" x1="-0.506" y1="1.279" x2="0.868" y2="0.217" gradientUnits="objectBoundingBox">
      <stop offset="0" stop-color="#eaedc2"/>
      <stop offset="0.521" stop-color="#f6f7e4"/>
      <stop offset="1" stop-color="#fff"/>
    </linearGradient>
    <linearGradient id="linear-gradient-3" x1="1.343" y1="-0.15" x2="-1.117" y2="1.751" gradientUnits="objectBoundingBox">
      <stop offset="0" stop-color="#fff"/>
      <stop offset="0.608" stop-color="#fdcf65"/>
      <stop offset="1" stop-color="#fcb000"/>
    </linearGradient>
    <radialGradient id="radial-gradient-2" cx="0.5" cy="0.5" r="0.637" gradientTransform="translate(-0.147) scale(1.294 1)" gradientUnits="objectBoundingBox">
      <stop offset="0" stop-color="#fca200" stop-opacity="0.502"/>
      <stop offset="0.129" stop-color="#fca405" stop-opacity="0.435"/>
      <stop offset="0.274" stop-color="#fca812" stop-opacity="0.365"/>
      <stop offset="0.428" stop-color="#fcb029" stop-opacity="0.286"/>
      <stop offset="0.588" stop-color="#fdbc49" stop-opacity="0.208"/>
      <stop offset="0.752" stop-color="#fdca72" stop-opacity="0.125"/>
      <stop offset="0.918" stop-color="#fedba3" stop-opacity="0.039"/>
      <stop offset="1" stop-color="#fee5be" stop-opacity="0"/>
    </radialGradient>
    <linearGradient id="linear-gradient-4" x1="-0.818" y1="1.381" x2="0.625" y2="-0.062" gradientUnits="objectBoundingBox">
      <stop offset="0" stop-color="#fcb000"/>
      <stop offset="0.214" stop-color="#fdc749"/>
      <stop offset="0.425" stop-color="#fedb8a"/>
      <stop offset="0.616" stop-color="#feeabc"/>
      <stop offset="0.781" stop-color="#fff6e1"/>
      <stop offset="0.914" stop-color="#fffcf7"/>
      <stop offset="1" stop-color="#fff"/>
    </linearGradient>
    <linearGradient id="linear-gradient-5" x1="-3.05" y1="3.04" x2="0.714" y2="0.131" gradientUnits="objectBoundingBox">
      <stop offset="0" stop-color="#fca200"/>
      <stop offset="0.324" stop-color="#fdc256"/>
      <stop offset="0.793" stop-color="#feedcf"/>
      <stop offset="1" stop-color="#fff"/>
    </linearGradient>
    <radialGradient id="radial-gradient-3" cx="0.649" cy="0.716" r="0.447" gradientTransform="translate(-0.147) scale(1.294 1)" gradientUnits="objectBoundingBox">
      <stop offset="0" stop-color="#fee5be"/>
      <stop offset="0.145" stop-color="#fee9c9" stop-opacity="0.855"/>
      <stop offset="0.707" stop-color="#fff9f0" stop-opacity="0.294"/>
      <stop offset="1" stop-color="#fff" stop-opacity="0"/>
    </radialGradient>
    <linearGradient id="linear-gradient-6" x1="1.759" y1="1.724" x2="-0.585" y2="-0.493" gradientUnits="objectBoundingBox">
      <stop offset="0" stop-color="#fca200"/>
      <stop offset="0.077" stop-color="#fcaa15"/>
      <stop offset="0.539" stop-color="#fed792"/>
      <stop offset="0.856" stop-color="#fff4e0"/>
      <stop offset="1" stop-color="#fff"/>
    </linearGradient>
  </defs>
  <circle id="Ellipse_1" data-name="Ellipse 1" cx="256" cy="256" r="256" fill="url(#linear-gradient)"/>
  <path id="Path_8" data-name="Path 8" d="M256,0A255.953,255.953,0,0,1,512,256c0,141.385-114.615,256-256,256S0,397.385,0,256,114.615,0,256,0Z" fill="url(#radial-gradient)"/>
  <path id="Path_1" data-name="Path 1" d="M109,135q-3.843,143.5,1.429,287A16.887,16.887,0,0,0,126,437.888q107.5,6.015,215,2.082a16.351,16.351,0,0,0,15.4-15.794q3.636-145.381.986-290.762a16.1,16.1,0,0,0-15.457-15.646q-108.67-2.955-217.34,1.565A16.466,16.466,0,0,0,108.995,135Z" fill="url(#linear-gradient-2)"/>
  <path id="Path_2" data-name="Path 2" d="M109,135q-3.843,143.5,1.429,287A16.887,16.887,0,0,0,126,437.888q107.5,6.015,215,2.082a16.351,16.351,0,0,0,15.4-15.794q3.636-145.381.986-290.762a16.1,16.1,0,0,0-15.457-15.646q-108.67-2.955-217.34,1.565A16.466,16.466,0,0,0,108.995,135Z" fill="url(#linear-gradient-3)"/>
  <path id="Path_3" data-name="Path 3" d="M109,135q-3.843,143.5,1.429,287A16.887,16.887,0,0,0,126,437.888q107.5,6.015,215,2.082a16.351,16.351,0,0,0,15.4-15.794q3.636-145.381.986-290.762a16.1,16.1,0,0,0-15.457-15.646q-108.67-2.955-217.34,1.565A16.466,16.466,0,0,0,108.995,135Z" fill="url(#radial-gradient-2)"/>
  <path id="Path_4" data-name="Path 4" d="M391.109,263.854c-39.35,38.594-79.091,78.528-118.062,117.995Q264.731,314.355,256,246.775C301.036,252.522,346.082,258.331,391.109,263.854Z" fill="url(#linear-gradient-4)"/>
  <path id="Path_5" data-name="Path 5" d="M155.6,87.824q-3.636,145.381-.986,290.762a16.1,16.1,0,0,0,15.457,15.645q35.381.961,70.762,1.132a44.849,44.849,0,0,0,32.21-13.514,46.756,46.756,0,0,0,13.513-32.672q.114-28.158.16-56.316a15.422,15.422,0,0,1,15.39-15.387q28.178-.061,56.356-.2a46.946,46.946,0,0,0,32.643-13.421A44.153,44.153,0,0,0,404.56,232q-.377-71-2.985-142A16.887,16.887,0,0,0,386,74.112Q278.5,68.1,171,72.03a16.351,16.351,0,0,0-15.4,15.794Z" fill="url(#linear-gradient-5)"/>
  <path id="Path_6" data-name="Path 6" d="M155.6,87.824q-3.636,145.381-.986,290.762a16.1,16.1,0,0,0,15.457,15.645q35.381.961,70.762,1.132a44.849,44.849,0,0,0,32.21-13.514,46.756,46.756,0,0,0,13.513-32.672q.114-28.158.16-56.316a15.422,15.422,0,0,1,15.39-15.387q28.178-.061,56.356-.2a46.946,46.946,0,0,0,32.643-13.421A44.153,44.153,0,0,0,404.56,232q-.377-71-2.985-142A16.887,16.887,0,0,0,386,74.112Q278.5,68.1,171,72.03a16.351,16.351,0,0,0-15.4,15.794Z" fill="url(#radial-gradient-3)"/>
  <path id="Path_7" data-name="Path 7" d="M373.864,267.1c-12.767-.84-75.552-13.206-75.555-13.237-20.622-3.627-37.812,14.441-35.23,35.218.016,0,7.281,62.776,8.167,75.539a39.519,39.519,0,0,1-6.412,23.829,46.209,46.209,0,0,0,8.212-6.6,46.756,46.756,0,0,0,13.513-32.672q.114-28.158.16-56.316a15.422,15.422,0,0,1,15.39-15.387q28.178-.061,56.356-.2A46.941,46.941,0,0,0,390.6,264.333a37.6,37.6,0,0,1-16.732,2.769Z" fill="url(#linear-gradient-6)"/>
</svg>
