<svg id="paste" xmlns="http://www.w3.org/2000/svg" xmlns:xlink="http://www.w3.org/1999/xlink" width="512" height="512" viewBox="0 0 512 512">
  <defs>
    <linearGradient id="linear-gradient" y1="-27.324" x2="1" y2="-27.324" gradientUnits="objectBoundingBox">
      <stop offset="0" stop-color="#866fcc" stop-opacity="0.471"/>
      <stop offset="0.231" stop-color="#866fcc" stop-opacity="0.639"/>
      <stop offset="0.514" stop-color="#4223a1" stop-opacity="0.588"/>
      <stop offset="0.777" stop-color="#4e18f5" stop-opacity="0.6"/>
      <stop offset="1" stop-color="#866fcc"/>
    </linearGradient>
  </defs>
  <path id="Path_1" data-name="Path 1" d="M512,256c0,141.387-114.613,256-256,256S0,397.387,0,256,114.613,0,256,0,512,114.613,512,256Zm0,0" fill="url(#linear-gradient)"/>
  <g id="Group_1" data-name="Group 1">
    <path id="Path_2" data-name="Path 2" d="M413.449,318.211a15,15,0,0,0,15-15V240.059A42.506,42.506,0,0,0,385.992,197.6h-25.5V144.641A56.253,56.253,0,0,0,304.3,88.453H272.59A41.048,41.048,0,0,0,233.812,61H216.23a41.043,41.043,0,0,0-38.777,27.457H145.738a56.253,56.253,0,0,0-56.188,56.188V358.813A56.25,56.25,0,0,0,145.738,415h60.406a15,15,0,0,0,0-30H145.738a26.214,26.214,0,0,1-26.187-26.184V144.645a26.215,26.215,0,0,1,26.187-26.187h.1v39.227a15,15,0,0,0,15,15H290.574a15,15,0,0,0,15-15v-39.2a26.218,26.218,0,0,1,24.918,26.152V197.6H287.136a42.5,42.5,0,0,0-42.453,42.453V372.547A42.507,42.507,0,0,0,287.148,415l98.84-.051A42.506,42.506,0,0,0,428.449,372.5a15,15,0,0,0-30,0,12.474,12.474,0,0,1-12.465,12.453l-98.84.051a12.471,12.471,0,0,1-12.461-12.453V240.055A12.467,12.467,0,0,1,287.136,227.6h98.855a12.471,12.471,0,0,1,12.457,12.457v63.152a15,15,0,0,0,15,15ZM175.84,142.688v-24.23h13.145a15,15,0,0,0,14.551-11.363l1.922-7.684A11.087,11.087,0,0,1,216.231,91h17.582a11.087,11.087,0,0,1,10.773,8.41l1.922,7.684a15,15,0,0,0,14.551,11.363h14.516v24.23Zm0,0" fill="#fff"/>
    <path id="Path_3" data-name="Path 3" d="M358.535,300.566H314.6a15,15,0,0,0,0,30h43.934a15,15,0,0,0,0-30Zm0,0" fill="#fff"/>
    <path id="Path_4" data-name="Path 4" d="M358.535,252.516H314.6a15,15,0,1,0,0,30h43.934a15,15,0,0,0,0-30Zm0,0" fill="#fff"/>
  </g>
</svg>
