<svg xmlns="http://www.w3.org/2000/svg" width="512" height="512" viewBox="0 0 512 512">
  <g id="download3" transform="translate(0 0)">
    <path id="Path_1" data-name="Path 1" d="M121,331h75v30H166a15,15,0,0,0-12.036,23.952l90,121a15,15,0,0,0,24.072,0l90-121A15,15,0,0,0,346,361H316V331H421c49.921,0,91-40.431,91-90,0-49.523-41.036-90-91-90-.492,0-.983,0-1.476.012-6.133-30.724-31.141-55.507-62.568-60.2a119.4,119.4,0,0,0-231.685-.692c-1.4-.076-2.827-.119-4.271-.119C54.8,90,0,144.538,0,211c0,66.168,54.28,120,121,120Zm195.148,60L256,471.866,195.852,391H211a15,15,0,0,0,15-15V241h60V376a15,15,0,0,0,15,15ZM121,120a90.5,90.5,0,0,1,14.013,1.465,15,15,0,0,0,17.211-12.908C157.971,63.772,196.136,30,241,30c44.249,0,82.362,33.219,88.654,77.271a15.014,15.014,0,0,0,17.077,12.735c23.83.412,43.862,20.892,44.263,45.251a15.023,15.023,0,0,0,17.868,16.972A60.459,60.459,0,0,1,421,181c33.636,0,61,26.916,61,60s-27.364,60-61,60H316V226a15,15,0,0,0-15-15H211a15,15,0,0,0-15,15v75H121c-50.178,0-91-40.374-91-90,0-49.326,41.673-91,91-91Z" fill="#fff"/>
  </g>
</svg>
