<svg id="audio-3" xmlns="http://www.w3.org/2000/svg" width="512" height="512" viewBox="0 0 512 512">
  <circle id="Ellipse_1" data-name="Ellipse 1" cx="256" cy="256" r="256" fill="rgba(42,209,162,0.57)"/>
  <path id="Path_1" data-name="Path 1" d="M512,256c0-7.1-.3-14.133-.87-21.089L385.219,109,228.983,226,212.9,342.854,135.93,388.577l123.38,123.38C399.167,510.183,512,396.278,512,256Z" fill="rgba(36,216,166,0.74)"/>
  <path id="Path_2" data-name="Path 2" d="M212.9,236.81V368.737h17.231V224.854H221.85Z" fill="#fff"/>
  <path id="Path_3" data-name="Path 3" d="M367.988,317.042h17.231V179.368l-17.231-3.959Z" fill="#fff"/>
  <g id="Group_1" data-name="Group 1">
    <path id="Path_4" data-name="Path 4" d="M299.061,138.178v.172l-86.158,28.6v69.788l86.158-28.6,86.158-28.776V109Z" fill="#fff"/>
    <path id="Path_5" data-name="Path 5" d="M178.441,403.2c-28.986,0-51.695-15.137-51.695-34.463s22.709-34.463,51.695-34.463,51.695,15.137,51.695,34.463S207.426,403.2,178.441,403.2Z" fill="#fff"/>
    <path id="Path_6" data-name="Path 6" d="M333.525,282.579c-13.441,0-25.33,3.274-34.463,8.616-10.684,6.2-17.232,15.508-17.232,25.847s6.548,19.644,17.232,25.847c9.133,5.342,21.022,8.616,34.463,8.616,28.949,0,51.7-15.164,51.7-34.463S362.473,282.579,333.525,282.579Z" fill="#fff"/>
  </g>
  <g id="Group_2" data-name="Group 2">
    <path id="Path_7" data-name="Path 7" d="M385.219,317.042c0,19.3-22.746,34.463-51.7,34.463-13.441,0-25.33-3.274-34.463-8.616v-51.7c9.133-5.342,21.022-8.616,34.463-8.616C362.473,282.579,385.219,297.743,385.219,317.042Z" fill="#fff"/>
    <path id="Path_8" data-name="Path 8" d="M385.219,109v70.362l-86.158,28.776v-69.96Z" fill="#fff"/>
  </g>
</svg>
