<svg id="mute-2" xmlns="http://www.w3.org/2000/svg" width="512" height="512" viewBox="0 0 512 512">
  <circle id="Ellipse_1" data-name="Ellipse 1" cx="256" cy="256" r="256" fill="rgba(226,105,76,0.85)"/>
  <path id="Path_1" data-name="Path 1" d="M511.244,275.8,310.441,75,75,330.8,256.193,512C390.827,511.9,501.14,407.87,511.244,275.8Z" fill="rgba(212,52,13,0.61)"/>
  <path id="Path_2" data-name="Path 2" d="M205.235,230.335l-1.485,26.514-1.908,36.27L169.106,330.8H75V182.611h93.894l.212-.213Z" fill="#444"/>
  <path id="Path_3" data-name="Path 3" d="M203.75,256.849l-1.908,36.27L169.106,330.8H75V256.849Z" fill="#292929"/>
  <path id="Path_4" data-name="Path 4" d="M310.441,75V437L169.106,330.8V182.4Z" fill="#5a5a5a"/>
  <path id="Path_5" data-name="Path 5" d="M402.215,256.849l34.785,35-14.847,14.848-35-34.786-35,34.786L337.31,291.846l34.785-35-34.785-35L352.156,207l35,34.786,35-34.786L437,221.85Z" fill="#1a1818"/>
  <path id="Path_6" data-name="Path 6" d="M169.106,256.849H310.441V437L169.106,330.8Z" fill="#444"/>
  <path id="Path_7" data-name="Path 7" d="M437,291.846l-14.847,14.848-35-34.786-35,34.786L337.31,291.846l34.785-35h30.12Z" fill="#555"/>
</svg>
